PathFileType	4	(X/Y/Z)	c:/Users/goper/Files/vsCode/490R/osim_files/A01/A01_Slow_01.trc
DataRate	CameraRate	NumFrames	NumMarkers	Units                	OrigDataRate	OrigDataStartFrame	OrigNumFrames
120.00	120.00	4	36	mm	120.0	1283	1710
                Frame#	Time	Mobility_markerset:LPSIS			Mobility_markerset:LASIS			Mobility_markerset:LTH1			Mobility_markerset:LTH2			Mobility_markerset:LTH3			Mobility_markerset:LTH4			Mobility_markerset:LLFE			Mobility_markerset:LMFE			Mobility_markerset:LSH1			Mobility_markerset:LSH2			Mobility_markerset:LSH3			Mobility_markerset:LSH4			Mobility_markerset:LLMAL			Mobility_markerset:LMMAL			Mobility_markerset:LCAL			Mobility_markerset:LMTP5			Mobility_markerset:LTOE			Mobility_markerset:LMTP1			Mobility_markerset:RPSIS			Mobility_markerset:RASIS			Mobility_markerset:RTH1			Mobility_markerset:RTH2			Mobility_markerset:RTH3			Mobility_markerset:RTH4			Mobility_markerset:RLFE			Mobility_markerset:RMFE			Mobility_markerset:RSH1			Mobility_markerset:RSH2			Mobility_markerset:RSH3			Mobility_markerset:RSH4			Mobility_markerset:RLMAL			Mobility_markerset:RMMAL			Mobility_markerset:RCAL			Mobility_markerset:RMTP1			Mobility_markerset:RTOE			Mobility_markerset:RMTP5		
		X1	Y1	Z1	X2	Y2	Z2	X3	Y3	Z3	X4	Y4	Z4	X5	Y5	Z5	X6	Y6	Z6	X7	Y7	Z7	X8	Y8	Z8	X9	Y9	Z9	X10	Y10	Z10	X11	Y11	Z11	X12	Y12	Z12	X13	Y13	Z13	X14	Y14	Z14	X15	Y15	Z15	X16	Y16	Z16	X17	Y17	Z17	X18	Y18	Z18	X19	Y19	Z19	X20	Y20	Z20	X21	Y21	Z21	X22	Y22	Z22	X23	Y23	Z23	X24	Y24	Z24	X25	Y25	Z25	X26	Y26	Z26	X27	Y27	Z27	X28	Y28	Z28	X29	Y29	Z29	X30	Y30	Z30	X31	Y31	Z31	X32	Y32	Z32	X33	Y33	Z33	X34	Y34	Z34	X35	Y35	Z35	X36	Y36	Z36

1283	10.68333	-4383.05713	1072.07178	191.84372	-4271.93506	1044.95691	419.31277	0.00000	0.00000	0.00000	0.00000	0.00000	0.00000	-4183.94922	729.91327	486.24316	0.00000	0.00000	0.00000	0.00000	0.00000	0.00000	0.00000	0.00000	0.00000	-1219.73157	1339.77002	2987.46338	0.00000	0.00000	0.00000	0.00000	0.00000	0.00000	0.00000	0.00000	0.00000	-4177.11475	127.49370	458.86514	-4264.03125	120.33767	453.22952	-4221.82275	101.71986	378.52835	-4149.95605	71.58900	592.93073	-4218.07617	84.70853	623.07117	-4250.84521	69.29746	598.26355	-4482.79492	1066.22424	203.32686	0.00000	0.00000	0.00000	-4583.61035	683.34070	266.35721	-4576.42139	640.61041	273.79388	-4586.08740	684.84393	329.54916	-4580.07227	642.81921	326.25806	-4534.35352	498.96530	301.98172	0.00000	0.00000	0.00000	-4510.07178	329.77719	163.28310	-4506.08447	285.46274	154.62968	-4524.23779	311.14062	219.58739	-4519.02197	269.25687	204.03847	-4461.35693	112.02352	132.68233	0.00000	0.00000	0.00000	-4396.61035	87.90558	94.08190	-4438.37793	50.42472	298.13162	-4492.40674	58.00307	312.10016	-4534.25928	42.90929	233.98471
1284	10.69167	-4383.41016	1071.72131	194.35661	-4271.21631	1044.33911	421.22995	0.00000	0.00000	0.00000	-4189.91455	418.37564	535.42279	0.00000	0.00000	0.00000	0.00000	0.00000	0.00000	0.00000	0.00000	0.00000	0.00000	0.00000	0.00000	-1219.87097	1339.90466	2987.29883	0.00000	0.00000	0.00000	0.00000	0.00000	0.00000	0.00000	0.00000	0.00000	-4178.75879	126.67381	471.94861	-4265.33057	119.13992	467.20895	-4223.51807	98.84719	392.74277	-4150.61768	73.18847	607.43445	-4218.75830	87.29240	637.64160	-4251.60400	71.25444	613.28448	-4483.10254	1065.98328	206.19592	0.00000	0.00000	0.00000	-4583.65039	683.17725	268.69717	-4576.30371	640.38171	276.09802	-4585.85010	684.53235	331.91818	-4579.80420	642.50781	328.56949	-4534.21094	498.76385	303.75980	0.00000	0.00000	0.00000	-4510.03613	330.01572	164.42905	-4506.06104	285.75549	155.60870	-4524.11230	311.17490	220.70013	-4518.90967	269.34549	205.00879	-4461.35742	112.42319	132.99922	0.00000	0.00000	0.00000	-4396.59473	88.29775	94.30441	-4438.40088	50.42873	298.19376	-4492.42432	57.96704	312.18420	-4534.24219	42.97662	234.03177
1285	10.70000	-4383.63525	1071.33142	196.97969	-4270.73096	1043.87463	423.26538	0.00000	0.00000	0.00000	0.00000	0.00000	0.00000	0.00000	0.00000	0.00000	-4181.20898	772.60577	473.34030	0.00000	0.00000	0.00000	0.00000	0.00000	0.00000	-1219.81763	1339.74622	2987.43018	0.00000	0.00000	0.00000	0.00000	0.00000	0.00000	0.00000	0.00000	0.00000	-4180.01855	125.55223	485.22571	-4266.60840	118.03368	481.10980	-4225.36279	96.14796	406.91501	-4151.22119	75.04176	621.71259	-4219.10449	89.86891	651.89752	-4252.13916	73.41074	628.14508	-4483.40430	1065.72717	209.05286	0.00000	0.00000	0.00000	-4583.62549	682.98468	271.03375	-4576.25049	640.20630	278.31802	-4585.69189	684.29517	334.22122	-4579.56055	642.23828	330.80368	-4533.99121	498.54895	305.53726	0.00000	0.00000	0.00000	-4509.90234	330.24139	165.54620	-4505.91064	286.03140	156.59532	-4523.96729	311.25027	221.77298	-4518.72705	269.47415	205.90971	-4461.27490	112.79890	133.29590	-4390.39307	121.18492	185.31310	-4396.47705	88.70084	94.57712	-4438.43750	50.44894	298.25183	-4492.42236	57.92049	312.24097	-4534.19189	43.02548	234.07124
1286	10.70833	-4383.89355	1071.00659	199.62576	-4270.13135	1043.33679	425.50031	0.00000	0.00000	0.00000	0.00000	0.00000	0.00000	-4183.86523	729.81573	493.85541	-4181.16943	772.34875	475.98257	0.00000	0.00000	0.00000	0.00000	0.00000	0.00000	-1219.86499	1339.71082	2987.48975	0.00000	0.00000	0.00000	0.00000	0.00000	0.00000	0.00000	0.00000	0.00000	-4181.28809	124.76768	498.27939	-4267.92627	117.08928	494.91870	-4226.54541	93.24040	420.73300	-4151.52881	77.00802	635.61084	-4218.93018	92.18840	665.81915	-4252.53125	75.70763	642.81439	-4483.60596	1065.51514	211.99684	0.00000	0.00000	0.00000	-4583.56738	682.84131	273.29245	-4576.09277	640.00916	280.50439	-4587.05811	684.55170	335.84683	-4580.95557	642.58746	332.33371	-4533.79346	498.33981	307.28864	0.00000	0.00000	0.00000	-4509.73047	330.53009	166.64938	-4505.78613	286.37848	157.52083	-4523.83496	311.36319	222.77898	-4518.52832	269.60898	206.76994	-4461.20410	113.22890	133.56468	-4390.22266	121.30721	185.63168	-4396.46631	89.16474	94.72089	-4438.47168	50.49814	298.31351	-4492.42334	57.89419	312.28247	-4534.12109	43.05283	234.06941
